<?xml version="1.0" encoding="UTF-8"?><svg xmlns="http://www.w3.org/2000/svg" xmlns:xlink="http://www.w3.org/1999/xlink" contentScriptType="text/ecmascript" width="810" zoomAndPan="magnify" contentStyleType="text/css" viewBox="0 0 810 809.999993" height="809.999993" preserveAspectRatio="xMidYMid meet" version="1.0"><defs><clipPath id="clip-0"><path d="M 34.042969 19.230469 L 729.226562 19.230469 L 729.226562 810 L 34.042969 810 Z M 34.042969 19.230469 " clip-rule="nonzero"/></clipPath></defs><path fill="rgb(70.588684%, 43.139648%, 24.308777%)" d="M 623.808594 363.765625 L 630.730469 389.769531 C 630.730469 389.769531 640.742188 383.15625 641.816406 382 C 642.894531 380.847656 640.347656 360.746094 640.347656 360.746094 Z M 633.9375 251.617188 L 632.996094 254.117188 C 632.996094 254.117188 620.558594 281.320312 635.246094 281.65625 C 635.246094 281.65625 645.160156 283.550781 647.101562 275.300781 C 649.042969 267.050781 649.042969 267.050781 649.042969 267.050781 L 654.460938 267.292969 L 653.800781 251.617188 Z M 589.484375 705.585938 C 593.1875 708.050781 598.953125 704.355469 598.953125 698.59375 C 598.953125 692.832031 598.953125 664.457031 598.953125 664.457031 L 582.488281 664.457031 C 582.488281 664.457031 585.78125 703.117188 589.484375 705.585938 Z M 516.257812 664.457031 L 516.273438 667.570312 C 516.273438 667.570312 513.773438 689.335938 517.25 695.429688 C 525.589844 710.027344 547.792969 710.472656 547.792969 710.472656 L 528.914062 664.457031 Z M 676.375 227.871094 C 676.375 227.871094 661.828125 244.941406 663.65625 251.617188 C 665.476562 258.289062 659.917969 283.816406 659.917969 283.816406 L 662.953125 283.816406 C 693.300781 279.226562 676.375 227.871094 676.375 227.871094 Z M 634.417969 225.300781 C 635.582031 225.6875 636.996094 217.652344 637.867188 211.800781 C 638.941406 208.675781 639.601562 206.289062 639.601562 206.289062 C 639.601562 206.289062 630.546875 188.566406 623.851562 187.53125 C 617.152344 186.507812 608.171875 184.820312 606.90625 189.1875 C 606.90625 189.1875 606.527344 190.402344 605.980469 192.351562 C 604.914062 192.957031 604.21875 193.78125 604.070312 194.921875 C 604.070312 194.921875 603.410156 199.335938 602.929688 204.875 C 601.804688 210.644531 601.144531 216.4375 602.277344 219.207031 C 602.375 219.457031 602.523438 219.6875 602.691406 219.910156 C 602.921875 222.199219 603.351562 224.109375 604.070312 225.300781 C 607.71875 231.367188 632.597656 224.695312 634.417969 225.300781 Z M 669.445312 100.90625 C 669.445312 100.90625 678.457031 97.269531 677.886719 80.324219 C 677.886719 80.324219 673.910156 72.882812 670.203125 82.554688 C 666.507812 92.226562 662.796875 83.664062 663.722656 78.660156 C 664.648438 73.660156 662.488281 67.660156 662.488281 67.660156 C 662.488281 67.660156 655.023438 70.007812 649.160156 69.320312 C 649.160156 69.320312 646.140625 76.324219 640.585938 70.660156 C 635.039062 64.988281 621.164062 73.660156 621.164062 73.660156 C 621.164062 73.660156 613.175781 104.972656 626.785156 109.800781 L 625.46875 114.683594 C 625.46875 114.683594 610.082031 136.109375 627.347656 137.226562 C 643.199219 138.25 651.328125 132.199219 651.328125 132.199219 C 651.328125 132.199219 662.300781 134.234375 664.457031 131.5625 C 666.617188 128.902344 669.445312 100.90625 669.445312 100.90625 Z M 538.707031 57.507812 C 538.707031 57.507812 512.476562 59.683594 511.476562 87.753906 C 509.996094 129.265625 526.601562 132.636719 528.765625 135.042969 C 528.765625 135.042969 528.363281 181.546875 524.046875 188.886719 C 524.046875 188.886719 543.890625 195.34375 547.347656 194.914062 C 550.804688 194.476562 560.3125 192.320312 559.882812 187.566406 C 559.453125 182.8125 548.644531 179.359375 549.082031 173.738281 C 549.511719 168.125 570.277344 131.226562 571.582031 125.597656 C 572.871094 119.976562 574.113281 93.128906 574.113281 93.128906 C 574.113281 93.128906 573.285156 52.757812 538.707031 57.507812 Z M 499.164062 212.976562 C 499.164062 212.976562 493.683594 212.519531 490.480469 211.148438 C 487.289062 209.785156 492.765625 198.824219 491.855469 189.234375 C 490.945312 179.648438 475.871094 181.929688 474.042969 182.382812 C 472.214844 182.847656 432.023438 233.523438 421.519531 264.117188 C 411.011719 294.703125 483.636719 332.136719 483.636719 332.136719 L 474.160156 366.160156 L 486.042969 387.125 C 491.789062 387.125 499.339844 342.652344 499.164062 332.136719 C 498.992188 321.34375 450.34375 263.546875 448.46875 261.371094 C 468.5625 250.414062 499.164062 212.976562 499.164062 212.976562 Z M 431.328125 119.40625 L 428.738281 97.558594 C 432.816406 93.863281 434.289062 76.089844 434.289062 76.089844 C 442.066406 77.570312 443.921875 66.832031 442.441406 55.722656 C 440.960938 44.621094 434.289062 51.285156 434.289062 51.285156 C 434.289062 51.285156 432.816406 44.996094 431.328125 35.371094 C 429.847656 25.75 423.554688 27.957031 412.070312 28.703125 C 400.59375 29.4375 403.550781 17.21875 386.144531 19.816406 C 368.742188 22.410156 375.960938 50.195312 376.148438 51.285156 C 377.027344 56.246094 374.890625 57.476562 374.890625 57.476562 C 366.699219 53.210938 366.183594 67.023438 368.0625 78.96875 C 369.9375 90.902344 381.011719 87.679688 381.011719 87.679688 C 382.417969 94.457031 390.199219 99.890625 390.199219 99.890625 C 390.199219 99.890625 389.480469 111.253906 389.480469 121.628906 C 389.480469 131.992188 402.816406 134.953125 402.816406 134.953125 C 432.816406 136.433594 431.328125 119.40625 431.328125 119.40625 Z M 245.792969 706.023438 C 245.792969 706.023438 254.191406 708.710938 254.191406 706.023438 C 254.191406 703.339844 267.074219 637.847656 267.074219 633.367188 C 267.074219 633.367188 247.46875 631.976562 237.398438 627.910156 C 237.398438 627.910156 244.675781 696.394531 245.792969 706.023438 Z M 201.082031 706.023438 L 210.75 706.023438 L 226.863281 627.910156 C 226.863281 627.910156 200.703125 631.128906 197.476562 634.34375 Z M 197.476562 485.167969 C 192.53125 483.457031 189.636719 474.933594 184.550781 473.90625 C 180.128906 482.480469 176.753906 500.953125 175.316406 510.492188 C 173.074219 525.324219 172.792969 540.257812 170.890625 555.078125 L 152.652344 581.160156 C 152.652344 581.160156 158.695312 584.265625 164.210938 582.035156 C 169.734375 579.804688 174.355469 575.007812 178.410156 568.941406 L 187.074219 544.09375 L 197.476562 512.898438 C 197.476562 512.898438 197.476562 485.167969 197.476562 485.167969 Z M 304.609375 389.769531 C 304.609375 389.769531 299.605469 408.90625 294.71875 422.484375 C 292.269531 429.273438 293.496094 435.246094 295.328125 439.53125 C 286.761719 429.570312 272.722656 426.082031 272.722656 426.082031 L 272.980469 466.757812 C 272.980469 466.757812 290.914062 489.300781 299.058594 487.125 C 307.210938 484.953125 316.996094 446.382812 316.996094 446.382812 L 325.683594 437.628906 L 318.625 421.941406 L 322.210938 418.683594 L 327.859375 429.007812 L 339.816406 429.007812 L 325.683594 385.542969 Z M 223.761719 436.613281 L 218.753906 424.773438 L 220.125 417.03125 C 211.789062 415.964844 205.09375 398.355469 205.09375 398.355469 C 201.445312 368.308594 221.945312 365.574219 221.945312 365.574219 C 241.53125 363.753906 247.453125 378.78125 252.464844 376.957031 C 257.476562 375.136719 257.476562 395.175781 257.476562 395.175781 C 257.476562 395.175781 248.816406 402.003906 248.816406 408.839844 C 248.816406 415.664062 252.917969 421.585938 252.917969 421.585938 C 240.625 443.449219 223.761719 436.613281 223.761719 436.613281 " fill-opacity="1" fill-rule="nonzero"/><g clip-path="url(#clip-0)"><path fill="rgb(100%, 79.998779%, 0%)" d="M 252.878906 419.949219 C 252.878906 419.949219 252.96875 419.972656 253.132812 420.015625 C 253.042969 419.898438 252.878906 419.949219 252.878906 419.949219 Z M 272.980469 453.054688 C 272.980469 453.054688 273.847656 427.925781 273.847656 426.519531 C 273.847656 425.214844 255.5 420.601562 253.132812 420.015625 C 253.367188 420.3125 253.09375 421.789062 248.074219 428.578125 C 241.121094 437.96875 216.402344 434.628906 216.402344 434.628906 C 203.097656 431.628906 197.476562 446.382812 197.476562 446.382812 L 197.476562 512.898438 C 197.476562 512.898438 194.410156 551.113281 194.410156 562.445312 C 194.410156 573.769531 185.59375 589.507812 179.300781 612.164062 C 173 634.8125 190.628906 636.078125 190.628906 636.078125 C 224.625 626.636719 241.625 634.183594 267.074219 633.367188 C 292.519531 632.546875 285.058594 534.753906 278.140625 516.503906 C 271.210938 498.25 272.980469 453.054688 272.980469 453.054688 Z M 728.9375 107.082031 C 718.429688 99.589844 708.621094 91.160156 699.640625 81.894531 C 698.320312 80.523438 692.53125 82.746094 693.910156 84.175781 C 702.890625 93.441406 712.699219 101.871094 723.207031 109.363281 C 724.316406 110.148438 726.070312 109.734375 727.226562 109.269531 C 727.699219 109.082031 730.003906 107.839844 728.9375 107.082031 Z M 174.507812 587.996094 C 162.597656 604.097656 144.894531 614.304688 126.082031 620.398438 C 116.640625 623.449219 106.898438 625.605469 97.085938 627.050781 C 85.484375 628.753906 73.105469 629.8125 61.820312 625.851562 C 51.574219 622.25 42.578125 614.273438 40.21875 603.378906 C 39.59375 600.433594 33.449219 602.03125 34.09375 605.015625 C 36.292969 615.230469 43.890625 623.117188 52.980469 627.796875 C 64.085938 633.5 77.117188 633.878906 89.296875 632.632812 C 111.035156 630.382812 133.410156 624.851562 152.421875 613.785156 C 162.960938 607.652344 172.398438 599.765625 179.675781 589.921875 C 182.003906 586.773438 176.25 585.640625 174.507812 587.996094 Z M 91.992188 595.21875 C 100.765625 595.433594 109.578125 594.046875 117.871094 591.144531 C 119.113281 590.714844 120.757812 589.65625 120.335938 588.085938 C 119.949219 586.640625 117.90625 586.234375 116.664062 586.664062 C 108.859375 589.390625 100.730469 590.664062 92.460938 590.464844 C 91.082031 590.425781 89.246094 591.566406 89.105469 593.039062 C 88.964844 594.691406 90.703125 595.1875 91.992188 595.21875 Z M 689.621094 37.449219 C 690.4375 37.355469 691.25 37.183594 692.007812 36.902344 C 692.589844 36.6875 693.292969 36.457031 693.738281 36.007812 C 698.929688 30.816406 704.125 25.636719 709.316406 20.445312 C 710.257812 19.511719 708.472656 19.484375 707.902344 19.542969 C 707.082031 19.632812 706.273438 19.808594 705.511719 20.089844 C 704.933594 20.304688 704.230469 20.535156 703.785156 20.980469 C 698.589844 26.171875 693.398438 31.355469 688.207031 36.546875 C 687.261719 37.488281 689.050781 37.503906 689.621094 37.449219 Z M 147.152344 633.828125 C 145.894531 632.988281 143.945312 633.707031 142.796875 634.335938 C 128.390625 642.144531 112.714844 647.640625 96.589844 650.542969 C 95.441406 650.75 93.296875 651.3125 93.140625 652.765625 C 92.984375 654.140625 94.828125 654.503906 95.851562 654.320312 C 113.6875 651.113281 130.753906 645.128906 146.691406 636.492188 C 147.75 635.921875 148.285156 634.582031 147.152344 633.828125 Z M 696.144531 57.683594 C 695.210938 58.59375 695.464844 59.722656 696.773438 60.03125 C 704.941406 61.921875 713.402344 62.34375 721.71875 61.285156 C 722.902344 61.128906 724.925781 60.5 725.175781 59.113281 C 725.441406 57.714844 723.382812 57.527344 722.488281 57.640625 C 715.128906 58.582031 707.710938 58.195312 700.484375 56.515625 C 699.046875 56.1875 697.210938 56.648438 696.144531 57.683594 Z M 626.257812 762.6875 C 628.992188 760.367188 631.671875 757.976562 634.261719 755.480469 C 637.136719 752.703125 640.296875 749.875 642.753906 746.710938 C 643.84375 745.296875 642.734375 743.90625 641.644531 742.660156 C 640.785156 741.667969 639.734375 740.816406 638.585938 740.1875 C 636.195312 738.882812 633.210938 738.289062 630.515625 738.800781 C 623.925781 740.046875 621.707031 748.066406 622.578125 753.828125 C 623.074219 757.117188 624.378906 760.117188 626.257812 762.6875 Z M 691.804688 570.519531 C 708.785156 601.847656 714.78125 638.625 710.210938 673.863281 C 707.910156 691.617188 702.882812 709.035156 695.125 725.1875 C 691.332031 733.097656 686.875 740.71875 681.824219 747.890625 C 676.316406 755.695312 669.941406 763.011719 661.722656 768.035156 C 650.929688 774.640625 634.292969 776.832031 624.222656 768.878906 C 610.480469 779.484375 595.28125 788.1875 579.246094 794.820312 C 545.949219 808.589844 508.871094 813.476562 473.25 807.621094 C 471.953125 807.40625 471.867188 806.628906 472.769531 805.820312 C 473.789062 804.894531 475.761719 804.441406 477.101562 804.664062 C 481.121094 805.324219 485.15625 805.863281 489.207031 806.25 C 521.566406 809.367188 554.605469 803.324219 584.058594 789.683594 C 597.464844 783.484375 610.105469 775.667969 621.660156 766.472656 C 620.078125 764.707031 618.722656 762.621094 617.722656 760.125 C 615.066406 753.523438 615.855469 745.320312 621.386719 740.410156 C 626.414062 735.957031 634.269531 734.558594 640.652344 736.351562 C 643.539062 737.164062 646.292969 738.792969 648.050781 741.253906 C 648.863281 742.386719 650.003906 744.015625 649.476562 745.363281 C 648.878906 746.867188 646.457031 748.695312 645.347656 749.859375 C 640.097656 755.382812 634.484375 760.554688 628.597656 765.390625 C 630.710938 767.410156 633.257812 768.996094 636.152344 769.953125 C 654.121094 775.898438 668.632812 759.140625 677.582031 746 C 695.863281 719.152344 705.238281 686.527344 705.546875 654.148438 C 705.859375 621.6875 697.175781 589.011719 679.449219 561.699219 C 678.285156 559.898438 684.246094 557.996094 685.179688 559.4375 C 687.527344 563.046875 689.753906 566.734375 691.804688 570.519531 Z M 493.449219 363.765625 C 493.449219 363.765625 496.417969 349.867188 499.164062 332.136719 C 501.902344 314.414062 517.867188 283.816406 517.867188 283.816406 C 506.472656 262.199219 504.011719 217.296875 504.011719 217.296875 C 517.058594 212.035156 525.113281 181.820312 525.113281 181.820312 C 525.113281 181.820312 534.769531 190.277344 541.105469 192.433594 C 554.714844 197.089844 559.882812 187.566406 559.882812 187.566406 C 559.882812 187.566406 553.316406 204.195312 565.339844 209.289062 C 577.371094 214.390625 592.890625 171.4375 592.890625 171.4375 C 592.890625 171.4375 606.246094 161.578125 602.449219 181.820312 C 598.65625 202.074219 590.03125 233.9375 590.03125 233.9375 L 602.449219 238.359375 C 585.761719 266.835938 595.726562 316.191406 595.726562 316.191406 L 615.976562 357.953125 C 550.148438 387.066406 493.449219 363.765625 493.449219 363.765625 " fill-opacity="1" fill-rule="nonzero"/></g><path fill="rgb(93.728638%, 85.099792%, 65.098572%)" d="M 517.867188 283.816406 L 493.449219 242.320312 C 493.449219 242.320312 499.742188 329.070312 499.164062 332.136719 C 498.578125 335.214844 448.46875 261.371094 448.46875 261.371094 L 495.011719 217.902344 L 504.011719 217.296875 Z M 483.636719 332.136719 L 474.160156 366.160156 C 383.21875 400.878906 345.820312 376.511719 345.820312 376.511719 L 339.816406 335.46875 L 325.683594 385.542969 L 304.609375 389.769531 C 304.609375 389.769531 305.730469 203.445312 312.074219 168.59375 C 312.355469 167.023438 312.769531 165.472656 313.273438 163.957031 C 317.273438 151.914062 326.933594 142.292969 336.589844 134.507812 C 347.515625 125.703125 359.808594 118.199219 372.4375 112.105469 C 375.71875 110.519531 379.050781 109.03125 382.425781 107.652344 C 382.796875 107.5 389.898438 105.269531 389.890625 105.789062 C 389.875 106.203125 389.867188 106.617188 389.859375 107.03125 C 389.800781 110.921875 389.867188 114.824219 390.222656 118.703125 C 390.40625 120.742188 390.644531 122.820312 391.207031 124.800781 C 391.925781 127.347656 393.695312 128.953125 395.9375 130.28125 C 400.988281 133.273438 406.992188 134.316406 412.796875 133.871094 C 418.371094 133.441406 424.214844 131.894531 428.070312 127.589844 C 429.234375 126.28125 430.195312 124.753906 430.789062 123.089844 C 430.964844 122.59375 431.492188 121.378906 431.21875 120.835938 C 430.878906 120.148438 429.335938 102.625 429.335938 102.625 L 449.222656 107.195312 C 469.089844 111.667969 499.164062 139.523438 499.164062 139.523438 C 499.164062 139.523438 481.832031 160.675781 477.597656 165.675781 C 473.367188 170.679688 475.679688 181.820312 475.679688 181.820312 L 474.042969 182.382812 C 474.042969 182.382812 413.070312 258.378906 423.183594 281.375 C 433.296875 304.371094 483.636719 332.136719 483.636719 332.136719 Z M 637.867188 211.800781 C 635.484375 219.160156 632.203125 225.984375 631.035156 225.597656 C 629.886719 225.21875 631.375 225.582031 630.242188 225.761719 C 627.40625 226.226562 624.570312 226.730469 621.714844 227.117188 C 617.070312 227.746094 607.933594 229.679688 604.375 225.566406 C 603.457031 224.515625 603.039062 223.132812 602.730469 221.777344 C 600.988281 214.074219 602.351562 206.046875 603.714844 198.277344 C 604.09375 196.136719 603.898438 193.535156 605.980469 192.351562 C 606.527344 190.402344 606.90625 189.1875 606.90625 189.1875 C 608.171875 184.820312 617.152344 186.507812 623.851562 187.53125 C 630.546875 188.566406 639.601562 206.289062 639.601562 206.289062 C 639.601562 206.289062 638.941406 208.675781 637.867188 211.800781 Z M 686.296875 128.027344 C 681.640625 114.992188 668.542969 109.007812 668.542969 109.007812 C 668.484375 111.699219 663.144531 120.320312 662.5625 121.296875 C 658.378906 128.363281 651.921875 132.539062 643.71875 133.398438 C 636.742188 134.144531 629.050781 131.878906 626.488281 124.695312 C 625.355469 121.519531 625.363281 118.058594 625.394531 114.683594 C 623.757812 115.238281 605.203125 120.488281 605.195312 121.527344 C 605.195312 121.527344 604.972656 148.097656 604.972656 148.097656 C 604.871094 153.726562 602.390625 159.421875 600.855469 164.777344 C 599.109375 170.828125 597.332031 176.871094 595.511719 182.894531 C 591.304688 196.867188 582.480469 209.371094 585.566406 224.582031 C 586.183594 227.621094 587.160156 232.277344 589.292969 234.65625 C 591.179688 236.765625 594.667969 237.0625 597.28125 237.078125 C 604.09375 237.121094 628.960938 238.515625 628.960938 238.515625 L 625.1875 248.261719 C 625.1875 248.261719 627.214844 250.296875 635.34375 251.917969 C 643.464844 253.546875 665.375 250.179688 665.375 250.179688 L 676.375 227.871094 C 701.15625 201.792969 690.953125 141.070312 686.296875 128.027344 " fill-opacity="1" fill-rule="nonzero"/><path fill="rgb(17.248535%, 16.079712%, 15.689087%)" d="M 629.84375 385.816406 C 629.84375 385.816406 602.566406 415.78125 616.894531 409.945312 C 631.21875 404.109375 643.960938 392.332031 643.960938 392.332031 L 641.816406 382 Z M 616.574219 65.847656 C 616.574219 65.847656 616.566406 66.203125 616.574219 66.773438 C 616.648438 69.550781 617.332031 77.503906 623.164062 75.503906 C 630.183594 73.089844 636.335938 69.800781 638.75 72.875 C 641.164062 75.941406 648.613281 75.332031 650.382812 73.75 C 652.152344 72.179688 662.019531 67.824219 661.804688 74.191406 C 661.582031 80.554688 664.0625 90.554688 664.523438 90.449219 C 664.988281 90.339844 675.214844 77.148438 677.292969 80.390625 C 679.359375 83.628906 677.886719 81.324219 677.886719 81.324219 L 677.769531 85.671875 C 677.769531 85.671875 684.320312 72.421875 679.679688 59.128906 C 675.035156 45.84375 653.335938 47.25 635.195312 49.152344 C 617.0625 51.046875 616.566406 66.203125 616.566406 66.203125 M 528.765625 135.042969 C 514.957031 121.546875 514.347656 113.699219 512.578125 95.632812 C 510.816406 77.5625 534.703125 47.953125 557.410156 61.203125 C 584.921875 77.25 568.789062 128.894531 567.027344 130.398438 C 564.746094 132.332031 532.230469 161.652344 545.757812 181.820312 C 549.289062 187.078125 555.796875 195.046875 554.714844 207.816406 C 553.640625 220.582031 571.308594 222.863281 582.390625 209.289062 C 593.46875 195.714844 590.484375 194.128906 600.976562 179.539062 C 611.464844 164.949219 605.0625 110.238281 598.671875 72.554688 C 592.289062 34.867188 558.535156 32.902344 558.535156 32.902344 C 473.234375 28.066406 501.058594 119.355469 501.976562 126.042969 C 502.886719 132.730469 487.828125 145.796875 487.828125 145.796875 C 461.375 172.703125 470.042969 186.839844 474.152344 188.664062 C 478.253906 190.484375 488.289062 190.945312 485.089844 201.972656 C 481.898438 213 488.746094 216.933594 488.746094 216.933594 C 524.316406 224.945312 530.214844 185.929688 530.214844 185.929688 C 532.710938 177.011719 528.765625 135.042969 528.765625 135.042969 Z M 580.132812 666.523438 C 580.132812 666.523438 578.917969 714.796875 582.488281 719.589844 C 586.070312 724.382812 602.839844 724.574219 603.773438 719.589844 C 604.707031 714.605469 601.035156 664.457031 601.035156 664.457031 L 598.101562 664.886719 C 598.101562 664.886719 601.382812 703.527344 592.445312 703.554688 C 592.445312 703.554688 587.707031 705.570312 586.019531 693.773438 C 584.332031 681.980469 582.671875 666.480469 582.671875 666.480469 Z M 513.859375 665.398438 L 510.988281 709.925781 L 513.773438 709.925781 L 516.257812 700.769531 C 516.257812 700.769531 524.90625 716.433594 536.722656 721.417969 C 548.546875 726.390625 557.957031 725.113281 553.78125 716.582031 C 551.042969 710.976562 544.0625 700.5625 545.484375 705.207031 C 546.933594 709.925781 533.941406 706.429688 531.453125 704.902344 C 528.535156 703.097656 525.914062 700.769531 523.839844 698 C 520.042969 692.933594 517.886719 686.730469 516.902344 680.476562 C 516.480469 677.78125 516.273438 675.042969 516.273438 672.316406 L 516.257812 665.746094 Z M 375.117188 45.789062 C 372.402344 28.578125 380.324219 24.816406 388.625 21.890625 C 396.929688 18.957031 401.875 25.246094 405.03125 27.734375 C 408.199219 30.214844 426.960938 28.554688 428.96875 29.808594 C 430.78125 30.941406 430.953125 36.496094 431.246094 38.300781 C 431.996094 42.945312 432.492188 47.621094 433.039062 52.292969 C 433.089844 52.699219 433.144531 53.121094 433.359375 53.46875 C 434.089844 54.648438 435.636719 54.574219 436.148438 53.625 C 436.402344 53.152344 436.371094 52.226562 436.453125 51.699219 C 437.355469 45.796875 438.066406 39.851562 438.472656 33.886719 C 438.875 27.976562 439.503906 21.164062 437.570312 15.445312 C 434.164062 5.335938 386.839844 7.523438 372.59375 15.445312 C 358.347656 23.363281 372.570312 58.484375 373.703125 58.9375 C 381.167969 61.949219 375.117188 45.789062 375.117188 45.789062 Z M 467.832031 692.765625 L 467.859375 702.777344 C 467.859375 702.777344 515.601562 733.285156 517.25 729.402344 C 518.902344 725.507812 484.007812 690.890625 484.007812 690.890625 Z M 372.378906 693.691406 C 372.378906 693.691406 332.152344 726.425781 333.210938 730.515625 C 334.269531 734.609375 388.601562 707.886719 388.601562 707.886719 L 386.800781 694.542969 Z M 245.792969 706.023438 L 245.792969 711.886719 C 245.792969 711.886719 281.652344 722.003906 278.082031 717.433594 C 274.515625 712.851562 254.191406 706.023438 254.191406 706.023438 Z M 201.082031 706.023438 C 201.082031 706.023438 181.507812 712.851562 177.9375 717.433594 C 174.375 722.003906 210.804688 712.09375 210.804688 712.09375 L 210.75 706.023438 Z M 223.761719 436.613281 C 223.761719 436.613281 223.902344 436.976562 224.109375 437.628906 C 227.136719 447.101562 228.195312 456.664062 221.722656 464.875 C 218.453125 469.007812 214.46875 472.808594 212.808594 477.800781 C 211.179688 482.679688 211.957031 488.226562 209.671875 492.828125 C 207.367188 497.5 201.851562 500.367188 196.699219 499.566406 C 189.183594 498.410156 184.371094 490.613281 183.128906 483.117188 C 181.3125 472.089844 184.90625 460.996094 187.324219 450.085938 C 188.40625 445.183594 189.242188 439.976562 187.605469 435.230469 C 186.15625 431.015625 182.941406 427.699219 180.453125 423.996094 C 172.183594 411.664062 172.488281 394.851562 178.855469 381.429688 C 185.222656 368.003906 196.890625 357.679688 209.757812 350.25 C 221.738281 343.320312 236.375 338.570312 249.347656 343.40625 C 257.121094 346.304688 263.429688 352.4375 267.578125 359.621094 C 271.738281 366.804688 273.878906 374.988281 275.003906 383.214844 C 276.914062 397.300781 275.90625 411.78125 272.042969 425.46875 C 266.925781 424.542969 261.808594 423.617188 256.691406 422.691406 C 255.234375 422.4375 253.714844 422.144531 252.570312 421.210938 C 251.199219 420.097656 250.636719 418.300781 250.148438 416.609375 C 248.851562 412.0625 247.660156 406.96875 249.875 402.789062 C 251.53125 399.664062 254.871094 397.554688 256.054688 394.222656 C 257.382812 390.445312 255.539062 386.304688 253.273438 383.007812 C 250.132812 378.4375 246.089844 374.484375 241.449219 371.441406 C 236.746094 368.367188 231.097656 366.1875 225.550781 367.121094 C 217.984375 368.402344 212.441406 375.136719 209.507812 382.222656 C 207.191406 387.792969 206.042969 393.992188 207.191406 399.910156 C 208.351562 405.828125 212.03125 411.417969 217.480469 414.003906 C 218.742188 414.597656 220.175781 415.113281 220.886719 416.3125 C 221.367188 417.121094 221.421875 418.097656 221.472656 419.023438 C 221.796875 425.015625 221.65625 431.304688 223.902344 436.976562 " fill-opacity="1" fill-rule="nonzero"/><path fill="rgb(17.649841%, 23.919678%, 33.729553%)" d="M 659.917969 283.816406 C 659.917969 283.816406 666.292969 263.042969 665.375 250.179688 L 653.800781 251.617188 L 654.460938 267.085938 L 649.042969 267.050781 C 649.042969 267.050781 649.042969 267.050781 647.101562 275.300781 C 645.160156 283.550781 635.246094 281.65625 635.246094 281.65625 C 623.972656 275.476562 633.9375 251.617188 633.9375 251.617188 L 625.1875 248.261719 L 628.960938 238.515625 L 597.28125 237.078125 C 597.28125 237.078125 580.230469 284.246094 595.726562 316.191406 C 605.246094 335.816406 611.59375 350.15625 615.09375 358.324219 C 607.351562 361.492188 548.605469 384.066406 493.449219 363.765625 C 493.449219 363.765625 491.078125 369.011719 489.027344 382 C 489.027344 382 486.042969 383.328125 480.660156 376.511719 L 474.160156 366.160156 C 474.160156 366.160156 396.914062 387.824219 345.820312 376.511719 C 345.820312 376.511719 347.902344 583.351562 372.378906 693.691406 L 386.800781 694.542969 L 423.035156 428.15625 L 467.832031 692.765625 L 484.007812 690.890625 L 493.664062 522.445312 C 495.210938 533.464844 497.03125 545.152344 499.164062 557.59375 L 507.550781 635.738281 C 507.550781 635.738281 503.464844 660.820312 510.367188 664.457031 C 517.273438 668.085938 538.019531 664.457031 538.019531 664.457031 C 538.019531 664.457031 540.839844 666.769531 538.019531 637.996094 C 535.199219 609.222656 562.289062 421.359375 562.289062 421.359375 L 574.238281 636.078125 C 574.238281 636.078125 569.0625 663.109375 571.878906 666.066406 C 574.699219 669.027344 603.484375 664.457031 603.484375 664.457031 C 603.484375 664.457031 646.902344 412.328125 645.363281 402.332031 C 644.8125 398.703125 642.082031 380.527344 642.082031 380.527344 L 630.730469 389.769531 L 624.148438 365.019531 L 659.917969 357.953125 C 659.917969 357.953125 645.191406 334.625 646.910156 325.054688 C 648.625 315.472656 659.917969 283.816406 659.917969 283.816406 Z M 632.472656 229.226562 C 634.0625 229.464844 635.640625 228.664062 636.46875 227.34375 C 647.554688 209.578125 651.386719 187.878906 647.191406 167.378906 C 646.613281 164.519531 640.460938 166.097656 641.058594 169.027344 C 645.101562 188.789062 641.125 210.023438 630.589844 226.621094 C 629.753906 227.945312 631.332031 229.054688 632.472656 229.226562 Z M 242.625 487.851562 C 243.105469 487.710938 242.898438 487.738281 242.625 487.851562 Z M 242.410156 495.855469 C 242.285156 493.945312 241.878906 491.605469 240.96875 489.871094 C 240.929688 489.9375 240.886719 489.984375 240.855469 490.050781 C 239.398438 492.65625 237.777344 495.027344 235.828125 497.175781 C 237.703125 496.605469 240.070312 496.632812 239.78125 497.671875 C 239.523438 498.625 239.886719 499.582031 240.589844 500.25 C 240.765625 500.425781 240.945312 500.550781 241.136719 500.664062 C 241.492188 500.144531 241.839844 499.523438 241.898438 499.398438 C 242.359375 498.269531 242.484375 497.070312 242.410156 495.855469 Z M 240.664062 501.277344 C 240.507812 501.328125 240.382812 501.367188 240.425781 501.410156 C 240.464844 501.449219 240.558594 501.382812 240.664062 501.277344 Z M 227.898438 499.65625 C 227.046875 498.472656 226.824219 497.019531 227.1875 495.671875 C 226.640625 495.277344 226.09375 494.886719 225.558594 494.5 C 225.5 495.894531 225.441406 497.300781 225.390625 498.707031 C 225.351562 499.722656 225.441406 500.476562 225.789062 501.308594 C 226.019531 501.152344 226.261719 501.003906 226.492188 500.839844 C 226.988281 500.476562 227.425781 500.054688 227.898438 499.65625 Z M 247.347656 488.769531 C 249.089844 493.183594 249.429688 499.027344 245.054688 501.996094 C 242.75 503.558594 239.199219 504.574219 236.496094 503.484375 C 234.769531 502.796875 233.472656 501.242188 233.570312 499.425781 C 233.421875 499.566406 233.289062 499.714844 233.132812 499.847656 C 231.496094 501.242188 229.675781 502.582031 227.742188 503.535156 C 225.714844 504.523438 221.695312 505.847656 219.96875 503.683594 C 218.742188 502.144531 219.28125 499.65625 219.355469 497.871094 C 219.457031 495.316406 219.5625 492.761719 219.660156 490.207031 C 219.703125 489.125 221.148438 488.636719 222.011719 488.347656 C 223.003906 488.019531 224.648438 487.613281 225.597656 488.28125 C 227.277344 489.457031 228.957031 490.628906 230.632812 491.796875 C 230.792969 491.902344 230.949219 492.019531 231.105469 492.125 C 231.59375 492.019531 232.074219 491.9375 232.535156 491.917969 C 232.890625 491.902344 233.601562 491.992188 234.023438 492.25 C 234.429688 491.5625 234.828125 490.878906 235.257812 490.191406 C 236.753906 487.804688 238.910156 486.316406 241.738281 485.867188 C 244.328125 485.472656 246.371094 486.289062 247.347656 488.769531 Z M 353.375 360.050781 C 352.730469 361.160156 353.929688 361.292969 354.875 361.25 C 384.410156 359.894531 413.9375 358.546875 443.464844 357.191406 C 444.589844 357.132812 446.929688 356.753906 447.558594 355.671875 C 448.203125 354.570312 447.011719 354.429688 446.0625 354.472656 C 416.527344 355.828125 386.996094 357.183594 357.46875 358.539062 C 356.34375 358.589844 354.003906 358.96875 353.375 360.050781 Z M 353.367188 300.082031 C 352.75 301.230469 353.90625 301.527344 354.921875 301.488281 C 374.171875 300.742188 393.339844 298.695312 412.300781 295.3125 C 413.128906 295.164062 415.796875 294.59375 415.839844 293.4375 C 415.890625 292.230469 414.121094 292.335938 413.292969 292.484375 C 394.828125 295.777344 376.191406 297.800781 357.445312 298.519531 C 356.289062 298.5625 353.996094 298.933594 353.367188 300.082031 Z M 356.386719 276.597656 C 372.949219 274.980469 389.503906 273.367188 406.058594 271.746094 C 406.96875 271.65625 409.429688 271.019531 409.605469 269.886719 C 409.804688 268.65625 407.734375 268.910156 407.066406 268.976562 C 390.511719 270.597656 373.949219 272.21875 357.394531 273.828125 C 356.496094 273.921875 354.023438 274.558594 353.847656 275.691406 C 353.65625 276.929688 355.726562 276.664062 356.386719 276.597656 Z M 417.734375 216.058594 C 417.875 214.660156 416.070312 214.207031 414.996094 214.398438 C 399.027344 217.273438 383.0625 220.160156 367.101562 223.035156 C 365.921875 223.25 363.820312 223.820312 363.664062 225.316406 C 363.523438 226.714844 365.332031 227.167969 366.410156 226.976562 C 382.375 224.09375 398.335938 221.21875 414.300781 218.339844 C 415.484375 218.125 417.574219 217.554688 417.734375 216.058594 Z M 361.175781 213.25 C 380.648438 210.742188 400.128906 208.238281 419.601562 205.734375 C 420.808594 205.585938 422.875 204.890625 423.023438 203.421875 C 423.175781 201.972656 421.371094 201.550781 420.261719 201.691406 C 400.789062 204.195312 381.316406 206.703125 361.835938 209.207031 C 360.628906 209.363281 358.5625 210.050781 358.414062 211.527344 C 358.265625 212.976562 360.066406 213.398438 361.175781 213.25 Z M 351.863281 250.363281 C 349.308594 277.203125 345.953125 303.910156 341.808594 330.433594 C 341.570312 331.941406 337.765625 332.726562 338.023438 331.089844 C 339.195312 323.566406 340.3125 316.035156 341.363281 308.480469 C 345.058594 281.855469 347.945312 255.066406 350.042969 228.167969 C 350.160156 226.6875 353.972656 225.769531 353.832031 227.507812 C 353.238281 235.136719 352.582031 242.757812 351.863281 250.363281 " fill-opacity="1" fill-rule="nonzero"/></svg>